<svg width="127" height="94" fill="none" xmlns="http://www.w3.org/2000/svg"><path d="M0 83.344h2.862v3.841h5.276v-3.84H11v10H8.138v-4.317H2.862v4.316H0v-10zm14 0h9.857v1.849h-6.956v2.144h6.385v1.707h-6.392v2.452H24v1.848H14v-10zm12 0h5.66c.786 0 1.454.09 2.004.277.55.18 1 .424 1.343.72.343.302.597.643.757 1.03a3.081 3.081 0 010 2.372c-.16.386-.409.727-.758 1.023-.343.302-.792.54-1.342.72-.55.18-1.218.27-2.005.27h-2.897v3.588h-2.756l-.006-10zm4.902 4.714c.32 0 .621-.02.911-.058.29-.038.55-.109.775-.218.224-.11.402-.258.538-.457.136-.2.201-.457.201-.772s-.065-.572-.201-.771a1.341 1.341 0 00-.538-.457 2.482 2.482 0 00-.775-.219 6.94 6.94 0 00-.91-.057h-2.147v3.003l2.146.006zm11.663-.314l-5.088-4.4h3.45l4.662 4.117v-4.117h2.816v4.104l4.661-4.104h3.45l-5.143 4.342L57 93.344h-3.614l-4.228-4.373-.747.655v3.712h-2.816v-3.712l-.916-.643-4.084 4.355H37l5.565-5.594zM58 83.344h11v10h-2.904v-8.156H60.91v8.156h-2.904v-10H58zm13 0h6.225c.866 0 1.6.09 2.206.277.605.18 1.099.424 1.476.72.377.302.657.643.833 1.03a2.84 2.84 0 010 2.372 2.693 2.693 0 01-.833 1.023c-.377.302-.871.54-1.477.72-.605.18-1.34.27-2.205.27h-3.187v3.588h-3.031v-10H71zm5.393 4.714c.35 0 .683-.02 1.001-.058.32-.038.605-.109.853-.218a1.46 1.46 0 00.592-.457c.15-.2.22-.457.22-.772s-.07-.572-.22-.771c-.15-.2-.345-.348-.592-.457a2.942 2.942 0 00-.853-.219 8.387 8.387 0 00-1.001-.057H74.03v3.003l2.362.006zm13.11 5.286c-1.022 0-1.939-.129-2.743-.38-.805-.252-1.484-.608-2.04-1.05a4.687 4.687 0 01-1.277-1.572A4.31 4.31 0 0183 88.398c0-.706.15-1.363.443-1.983a4.757 4.757 0 011.278-1.609c.555-.454 1.234-.81 2.039-1.074.804-.258 1.714-.387 2.743-.387 1.01 0 1.92.13 2.731.387.81.258 1.49.614 2.045 1.074a4.7 4.7 0 011.278 1.609c.3.614.443 1.277.443 1.983a4.39 4.39 0 01-.443 1.945 4.63 4.63 0 01-1.278 1.572c-.555.448-1.24.798-2.045 1.05-.81.258-1.72.38-2.73.38zm0-1.75c.655 0 1.21-.091 1.665-.275.455-.185.83-.424 1.11-.73.28-.302.492-.645.623-1.026.131-.38.194-.767.194-1.173 0-.417-.063-.822-.194-1.215a2.826 2.826 0 00-.623-1.05 3.059 3.059 0 00-1.11-.736c-.455-.185-1.01-.277-1.665-.277s-1.21.092-1.665.277c-.455.184-.829.43-1.11.736a2.828 2.828 0 00-.623 1.05c-.13.393-.193.798-.193 1.215 0 .4.062.792.193 1.173.131.38.337.718.623 1.025.287.3.655.546 1.11.73.456.185 1.01.277 1.665.277zm15.045.707c-2.103.013-3.719-.325-4.85-1.012-1.13-.68-1.698-1.693-1.698-3.03 0-1.295.556-2.27 1.667-2.933 1.111-.663 2.74-1.006 4.874-1.043v-.939h2.911v.939c2.179 0 3.814.337 4.906 1.018 1.093.681 1.642 1.663 1.642 2.957 0 1.338-.568 2.344-1.699 3.025-1.13.681-2.746 1.018-4.849 1.018v1.043h-2.911l.007-1.043zm0-6.503c-1.263.037-2.198.252-2.804.644-.606.393-.909 1-.909 1.823 0 .76.309 1.355.941 1.791.625.436 1.553.663 2.778.681l-.006-4.939zm2.911 4.939c1.313-.018 2.26-.245 2.854-.681.587-.436.884-1.037.884-1.791 0-.81-.285-1.418-.853-1.816-.568-.4-1.528-.614-2.879-.65l-.006 4.938zM116 83.344h2.829v6.932h.055l4.927-6.932H127v9.994h-2.829V86.4h-.055l-4.927 6.944H116v-10zM80.46 19.215L80.42 37.4l-.04 8.156c-.052 12.022-9.87 21.762-21.906 21.709-11.613-.053-21.089-9.238-21.67-20.693a36.457 36.457 0 01-.026-1.214l.026-5.186 6.11-1.28-.039 6.4v.092c-.04 8.657 6.968 15.744 15.625 15.77 8.657.04 15.744-6.967 15.77-15.638l.04-6.836.026-18.198 6.124-1.267zM85.844 0v6.321l-49.066 9.832V9.858L85.844 0z" fill="#F2F2F2"/><path d="M65.415 21.973v6.387l-28.637 6.176v-6.4l28.637-6.163zm0-8.894v6.387l-10.782 2.19v-6.4l10.782-2.177z" fill="#F2F2F2"/></svg>