<svg width="40" height="40" fill="none" xmlns="http://www.w3.org/2000/svg"><path d="M20 9.344c3.47 0 3.88.01 5.25.08 1.27.06 1.96.27 2.41.45.61.24 1.04.52 1.49.97.46.46.74.89.97 1.49.18.46.39 1.15.45 2.41.06 1.37.08 1.78.08 5.25 0 3.47-.01 3.88-.08 5.25-.06 1.27-.27 1.96-.45 2.41-.24.61-.52 1.04-.97 1.5-.45.45-.89.74-1.49.97-.46.18-1.15.39-2.41.45-1.37.06-1.78.08-5.25.08-3.47 0-3.88-.01-5.25-.08-1.27-.06-1.96-.27-2.41-.45-.61-.24-1.04-.52-1.5-.97-.45-.46-.74-.89-.97-1.5-.18-.46-.39-1.15-.45-2.41-.06-1.35-.08-1.77-.08-5.24s.01-3.88.08-5.25c.06-1.27.27-1.96.45-2.41.23-.61.51-1.05.97-1.5.46-.46.89-.74 1.5-.97.46-.18 1.15-.39 2.41-.45 1.37-.06 1.78-.08 5.25-.08zm0-2.34c-3.53 0-3.97.02-5.36.08-1.38.06-2.33.28-3.16.6-.86.33-1.58.78-2.3 1.5a6.39 6.39 0 00-1.5 2.3c-.32.83-.54 1.77-.6 3.16-.07 1.39-.08 1.83-.08 5.36 0 3.53.01 3.97.08 5.36.06 1.38.28 2.33.6 3.16.33.85.78 1.58 1.5 2.3a6.39 6.39 0 002.3 1.5c.83.32 1.77.54 3.16.6 1.39.07 1.83.08 5.36.08 3.53 0 3.97-.01 5.36-.08 1.38-.06 2.33-.28 3.16-.6.86-.33 1.58-.78 2.3-1.5a6.39 6.39 0 001.5-2.3c.32-.83.54-1.77.6-3.16.07-1.38.08-1.83.08-5.36 0-3.53-.01-3.97-.08-5.36-.06-1.38-.28-2.33-.6-3.16a6.39 6.39 0 00-1.5-2.3 6.39 6.39 0 00-2.3-1.5c-.83-.32-1.77-.54-3.16-.6-1.38-.06-1.83-.08-5.36-.08z" fill="#F2F2F2"/><path d="M20 13.331a6.68 6.68 0 00-6.68 6.68 6.68 6.68 0 006.68 6.68 6.68 6.68 0 006.68-6.68 6.68 6.68 0 00-6.68-6.68zm0 11.01c-2.39 0-4.33-1.94-4.33-4.33s1.94-4.33 4.33-4.33 4.33 1.94 4.33 4.33a4.319 4.319 0 01-4.33 4.33z" fill="#F2F2F2"/></svg>