<svg width="161" height="32" fill="none" xmlns="http://www.w3.org/2000/svg"><path d="M33.374 11.54H36.3v3.753h5.393V11.54h2.925v9.775h-2.925v-4.219H36.3v4.219h-2.926V11.54zm13.824 0h9.963v1.807H50.13v2.097h6.454v1.67h-6.46v2.398h7.182v1.808H47.198v-9.78zm12.085 0h6.008c.835 0 1.545.087 2.129.269.584.176 1.06.414 1.425.703.364.295.634.628.803 1.005a2.8 2.8 0 010 2.316c-.17.377-.433.71-.803.998-.364.296-.841.528-1.425.704-.584.175-1.294.263-2.129.263h-3.076v3.503H59.29l-.007-9.762zm5.205 4.6c.339 0 .659-.018.967-.056a2.87 2.87 0 00.822-.213c.239-.107.427-.251.571-.446.145-.195.214-.446.214-.753 0-.308-.07-.559-.214-.754a1.398 1.398 0 00-.571-.445 2.816 2.816 0 00-.822-.214 8.02 8.02 0 00-.967-.056h-2.28v2.932l2.28.006zm11.414-.3l-5.092-4.3h3.453l4.665 4.023V11.54h2.819v4.012l4.664-4.012h3.453l-5.148 4.244 5.631 5.531h-3.616L82.5 17.039l-.747.64v3.629h-2.82v-3.629l-.916-.628-4.087 4.257h-3.597l5.569-5.469zm15.613-4.3h11.08v9.774H99.67v-7.973h-5.224v7.973h-2.925v-9.775h-.006zm13.648 0h6.008c.835 0 1.544.087 2.128.269.584.176 1.061.414 1.425.703.364.295.634.628.804 1.005a2.807 2.807 0 010 2.316c-.17.377-.433.71-.804.998-.364.296-.841.528-1.425.704-.584.175-1.293.263-2.128.263h-3.076v3.503h-2.926V11.54h-.006zm5.204 4.6c.339 0 .66-.018.967-.056.308-.037.584-.106.823-.213.238-.107.426-.251.571-.446.144-.195.213-.446.213-.753 0-.308-.069-.559-.213-.754a1.406 1.406 0 00-.571-.445 2.824 2.824 0 00-.823-.214 8.013 8.013 0 00-.967-.056h-2.279v2.932l2.279.006zm13.21 5.394c-1.03 0-1.953-.132-2.763-.39-.81-.257-1.494-.621-2.053-1.073a4.799 4.799 0 01-1.287-1.607 4.47 4.47 0 01-.445-1.99c0-.723.15-1.394.445-2.028a4.868 4.868 0 011.287-1.645c.559-.465 1.243-.829 2.053-1.099.81-.264 1.727-.395 2.763-.395 1.017 0 1.933.131 2.749.395.817.264 1.501.628 2.06 1.099.558.464.985 1.01 1.287 1.645a4.63 4.63 0 01.445 2.028c0 .709-.15 1.374-.445 1.99a4.739 4.739 0 01-1.287 1.607c-.559.458-1.25.816-2.06 1.073-.816.264-1.732.39-2.749.39zm0-1.79c.659 0 1.218-.094 1.676-.282.458-.189.835-.433 1.117-.747.283-.308.496-.66.628-1.049.132-.389.195-.785.195-1.199 0-.427-.063-.841-.195-1.243a2.9 2.9 0 00-.628-1.073 3.072 3.072 0 00-1.117-.754c-.458-.188-1.017-.282-1.676-.282-.66 0-1.218.094-1.677.282-.458.189-.835.44-1.117.754a2.9 2.9 0 00-.628 1.073 3.954 3.954 0 000 2.442 2.9 2.9 0 00.628 1.049c.289.307.659.558 1.117.747.459.188 1.017.282 1.677.282zm14.414.724c-2.09.012-3.697-.333-4.821-1.036-1.124-.697-1.689-1.733-1.689-3.101 0-1.325.552-2.323 1.657-3.001 1.105-.678 2.725-1.03 4.847-1.068v-.96h2.894v.96c2.166 0 3.792.346 4.878 1.042 1.086.697 1.632 1.702 1.632 3.027 0 1.368-.565 2.398-1.688 3.095-1.124.696-2.731 1.042-4.822 1.042v1.067h-2.894l.006-1.067zm0-6.655c-1.255.038-2.184.257-2.787.66-.603.401-.904 1.022-.904 1.864 0 .778.307 1.387.935 1.833.622.446 1.545.678 2.763.697l-.007-5.054zm2.894 5.054c1.306-.02 2.248-.251 2.838-.697.584-.446.879-1.061.879-1.833 0-.829-.282-1.45-.848-1.859-.565-.408-1.519-.627-2.862-.665l-.007 5.054zm8.45-7.327h2.913v6.78h.057l5.072-6.78h3.284v9.774h-2.913v-6.787h-.057l-5.072 6.793h-3.284v-9.78zM20.78 9.142l-.019 8.65-.018 3.88C20.718 27.392 16.047 32.026 10.32 32 4.796 31.975.29 27.605.013 22.156A17.342 17.342 0 010 21.578l.013-2.467 2.906-.609-.019 3.045v.044c-.018 4.118 3.315 7.49 7.434 7.502 4.118.019 7.49-3.315 7.502-7.44l.019-3.251.012-8.658 2.913-.602zM23.342 0v3.007L0 7.684V4.69L23.342 0z" fill="#F2F2F2"/><path d="M13.623 10.453v3.039L0 16.43v-3.045l13.623-2.932zm0-4.231V9.26l-5.13 1.042V7.258l5.13-1.036z" fill="#F2F2F2"/></svg>