<svg width="61" height="61" fill="none" xmlns="http://www.w3.org/2000/svg"><circle cx="30.5" cy="30.5" r="30.5" fill="#1F4F96"/><path d="M38.176 26.555l-.016 7.15-.015 3.208c-.021 4.727-3.882 8.556-8.614 8.535-4.567-.02-8.292-3.632-8.52-8.136a12.412 12.412 0 01-.011-.477l.01-2.04 2.403-.503-.016 2.517v.036c-.015 3.404 2.74 6.19 6.144 6.2a6.175 6.175 0 006.201-6.148l.016-2.688.01-7.156 2.408-.498zM40.293 19v2.485L21 25.351v-2.475L40.293 19z" fill="#F2F2F2"/><path d="M32.26 27.64v2.511L21 32.58v-2.517l11.26-2.423zm0-3.497v2.511l-4.24.861V25l4.24-.856z" fill="#F2F2F2"/></svg>