<svg width="30" height="31" fill="none" xmlns="http://www.w3.org/2000/svg"><path d="M5.333 13.567v-1h-1v1h1zm7.734 0v-1h-1v1h1zm0 7.733h-1v1h1v-1zM26.6 7.767h1v-.414l-.293-.293-.707.707zm-5.8-5.8l.707-.707-.293-.293H20.8v1zm-15.467 12.6h1.934v-2H5.333v2zm1 7.7v-4.834h-2v4.834h2zm0-4.834v-3.866h-2v3.866h2zm.934-1H5.333v2h1.934v-2zM8.2 15.5a.933.933 0 01-.933.933v2A2.933 2.933 0 0010.2 15.5h-2zm-.933-.933c.515 0 .933.418.933.933h2a2.933 2.933 0 00-2.933-2.933v2zm4.8-1V21.3h2v-7.733h-2zm1 8.733H15v-2h-1.933v2zm4.866-2.933V15.5h-2v3.867h2zM15 12.567h-1.933v2H15v-2zm2.933 2.933A2.933 2.933 0 0015 12.567v2c.515 0 .933.418.933.933h2zM15 22.3a2.933 2.933 0 002.933-2.933h-2A.933.933 0 0115 20.3v2zm4.8-9.7v9.667h2V12.6h-2zm1 1.967h4.833v-2H20.8v2zm0 3.866h2.9v-2h-2.9v2zM4.4 10.667V3.9h-2v6.767h2zm21.2-2.9v2.9h2v-2.9h-2zm-20.267-4.8H20.8v-2H5.333v2zm14.76-.293l5.8 5.8 1.414-1.414-5.8-5.8-1.414 1.414zM4.4 3.9c0-.515.418-.933.933-.933v-2A2.933 2.933 0 002.4 3.9h2zm-2 20.3v2.9h2v-2.9h-2zm2.933 5.834h19.334v-2H5.333v2zM27.6 27.1v-2.9h-2v2.9h2zm-2.933 2.933A2.933 2.933 0 0027.6 27.1h-2a.933.933 0 01-.933.933v2zM2.4 27.1a2.933 2.933 0 002.933 2.933v-2A.933.933 0 014.4 27.1h-2z" fill="#F2F2F2"/></svg>