<svg width="40" height="40" fill="none" xmlns="http://www.w3.org/2000/svg"><path fill-rule="evenodd" clip-rule="evenodd" d="M20.253 5.801c7.5 0 13.592 6.008 13.778 13.486.009.117.009.233.009.341 0 7.64-6.171 13.836-13.787 13.836-2.412 0-4.682-.628-6.659-1.722L5.96 34.2l2.492-7.415a13.78 13.78 0 01-1.978-7.147c0-.206 0-.404.01-.61.319-7.362 6.365-13.226 13.769-13.226zM13.878 29.34a11.456 11.456 0 006.375 1.928c6.392 0 11.588-5.219 11.588-11.63 0-.305-.009-.6-.036-.906-.47-5.99-5.47-10.724-11.552-10.724-6.003 0-10.96 4.618-11.527 10.491a9.65 9.65 0 00-.062 1.13c0 2.547.825 4.905 2.208 6.824l-1.445 4.322 4.45-1.435zm12.552-6.984a203.908 203.908 0 01.357.178c.215.107.366.182.434.278.08.144.08.825-.204 1.614-.275.798-1.658 1.56-2.278 1.614-.108.01-.197.031-.288.053-.436.105-.929.224-3.773-.896-3.174-1.257-5.261-4.362-5.698-5.01a3.69 3.69 0 00-.086-.125c-.152-.21-.858-1.174-1.194-2.334a4.25 4.25 0 01-.177-1.157c0-1.565.765-2.388 1.116-2.765l.063-.068c.31-.34.683-.422.904-.422.12 0 .238.01.35.02.105.008.204.016.298.016l.078-.003c.195-.013.443-.03.684.568l.398.962c.287.697.596 1.447.648 1.558.089.17.142.367.027.592l-.04.08a3.15 3.15 0 01-.173.323c-.044.054-.08.099-.124.162-.056.065-.114.136-.172.207-.117.141-.233.283-.333.384-.169.17-.346.35-.151.69.195.341.878 1.444 1.88 2.341a8.464 8.464 0 002.483 1.582c.096.042.173.075.23.104.345.17.532.143.735-.08.196-.225.852-.987 1.073-1.328.23-.34.453-.287.763-.17.278.096 1.644.771 2.17 1.032z" fill="#275DAF"/></svg>